<?xml version="1.0" standalone="no"?>
<!DOCTYPE svg PUBLIC "-//W3C//DTD SVG 20010904//EN"
 "http://www.w3.org/TR/2001/REC-SVG-20010904/DTD/svg10.dtd">
<svg version="1.0" xmlns="http://www.w3.org/2000/svg"
 width="886" height="693" viewBox="254 -7 886 693"
 preserveAspectRatio="xMidYMid meet">
<metadata>
Created by potrace 1.16, written by Peter Selinger 2001-2019
</metadata>
<g transform="translate(0.000000,720.000000) scale(0.100000,-0.100000)"
fill="#000000" stroke="none">
<path d="M10287 6649 c-12 -35 -21 -45 -56 -59 -24 -9 -42 -20 -41 -25 1 -4 -12
-14 -29 -21 -17 -7 -31 -19 -31 -27 0 -16 -64 -87 -79 -87 -6 0 -11 -2 -11 -4
0 -2 -3 -12 -6 -20 -5 -12 -2 -15 11 -10 13 5 16 3 13 -7 -6 -19 -38 -24 -38
-6 0 23 -47 9 -54 -16 -9 -35 -7 -44 10 -51 24 -9 54 3 55 22 0 11 3 12 6 5 2
-7 12 -13 20 -13 11 0 14 7 9 25 -4 16 -2 25 5 25 6 0 9 7 5 15 -3 8 1 21 9
29 8 8 15 20 15 26 0 7 8 9 23 4 12 -3 19 -3 15 1 -10 10 52 56 64 49 5 -3 -3
-20 -17 -37 -29 -37 -36 -46 -52 -73 -6 -10 -16 -18 -22 -16 -6 1 -11 -4 -11
-12 0 -21 -60 -78 -76 -72 -17 6 -38 -20 -28 -35 5 -9 2 -10 -9 -6 -12 5 -19
-1 -23 -18 -4 -15 -13 -25 -25 -25 -10 0 -23 -9 -29 -20 -18 -34 -103 -121
-134 -137 -20 -11 -31 -12 -39 -4 -6 6 -16 11 -21 11 -6 0 -2 -7 8 -15 17 -13
18 -15 2 -21 -9 -3 -23 -1 -32 6 -23 20 -40 -2 -19 -24 15 -15 15 -17 -2 -23
-10 -3 -35 -21 -56 -40 -20 -18 -46 -33 -56 -33 -10 0 -21 -7 -25 -15 -3 -8
-3 -15 -1 -15 3 0 53 19 112 41 60 23 119 45 133 49 14 5 83 29 154 54 99 35
132 43 138 34 7 -12 12 -4 9 15 0 4 2 6 6 5 5 -1 22 4 38 11 17 7 75 24 129
38 55 13 117 33 138 44 20 10 42 19 48 19 7 0 42 14 78 31 37 17 76 33 87 36
58 14 65 15 65 4 0 -6 5 -11 10 -11 6 0 10 7 10 16 0 8 4 13 10 9 5 -3 32 6
60 20 28 14 55 23 60 20 15 -9 -61 -95 -85 -95 -20 -1 -20 -1 0 -12 11 -6 22
-13 24 -15 8 -6 -42 -53 -56 -53 -7 0 -13 -3 -13 -7 0 -5 -16 -8 -35 -9 -44
-1 -52 -9 -32 -32 24 -26 21 -33 -10 -26 -22 4 -25 3 -13 -5 13 -9 9 -16 -5
-8 -2 1 -12 -8 -21 -21 -13 -19 -22 -22 -52 -17 -21 3 -32 2 -27 -2 21 -15 10
-48 -20 -63 -16 -8 -44 -25 -62 -38 -17 -12 -38 -22 -47 -22 -9 0 -16 -6 -16
-14 0 -18 -53 -39 -79 -31 -12 4 -21 2 -21 -4 0 -6 -7 -8 -15 -5 -21 8 -19
-13 3 -25 16 -9 16 -10 -1 -16 -10 -4 -28 0 -42 9 -32 21 -52 22 -35 1 7 -8
19 -15 26 -15 25 0 15 -15 -23 -34 -21 -10 -46 -22 -56 -27 -10 -6 -22 -7 -27
-4 -5 3 -11 1 -15 -5 -4 -7 -13 -7 -26 1 -27 14 -34 6 -14 -15 15 -15 15 -17
-2 -22 -10 -3 -28 -10 -41 -15 -13 -5 -44 -9 -70 -10 -42 0 -44 -1 -22 -11 30
-12 88 -7 290 28 85 14 184 30 220 34 89 12 243 37 310 50 59 12 63 12 154 8
87 -4 86 -33 -1 -40 -37 -3 -34 -18 3 -18 25 0 25 0 7 -24 -17 -23 -32 -32
-105 -66 -15 -7 -37 -10 -50 -7 -23 6 -23 6 2 -13 l25 -19 -50 -4 c-39 -3 -45
-5 -28 -11 35 -13 17 -26 -35 -27 -34 -1 -40 -3 -23 -8 21 -6 22 -8 8 -20 -9
-7 -27 -14 -41 -15 -14 0 -22 -6 -19 -13 3 -9 -4 -13 -21 -13 -14 0 -26 -4
-26 -9 0 -9 -47 -33 -87 -46 -17 -5 -23 -2 -23 9 0 16 -29 36 -52 36 -7 0 2
-12 20 -26 17 -14 32 -29 32 -33 0 -12 -162 -81 -193 -82 -14 -1 -9 -4 13 -10
19 -4 42 -6 50 -4 8 2 62 7 120 10 58 3 145 8 195 11 91 5 142 -4 157 -29 5
-9 11 -7 20 6 12 16 14 16 25 -3 11 -17 10 -22 -15 -37 -15 -10 -38 -31 -51
-46 -22 -26 -121 -85 -121 -72 0 4 -5 3 -11 -1 -8 -5 -8 -9 1 -14 14 -9 -42
-40 -72 -40 -10 0 -18 -4 -18 -8 0 -12 -46 -32 -71 -32 -12 0 -33 -6 -47 -14
-15 -8 -56 -24 -92 -34 -36 -11 -84 -25 -106 -32 -23 -7 -70 -18 -105 -25 -64
-12 -64 -12 -34 -24 17 -7 71 -17 120 -22 50 -5 110 -13 135 -18 25 -6 78 -15
118 -22 39 -7 72 -16 72 -20 0 -5 8 -8 18 -7 40 3 62 -3 62 -17 0 -18 -51 -45
-86 -45 -22 0 -24 -2 -14 -14 6 -8 19 -12 28 -9 15 4 15 3 2 -6 -8 -6 -28 -11
-43 -11 -23 0 -27 -3 -22 -19 5 -15 -3 -20 -54 -31 -33 -7 -83 -10 -111 -8
-27 3 -50 2 -50 -2 0 -12 50 -30 82 -30 38 0 28 -13 -23 -29 -25 -8 -44 -9
-63 -2 -22 9 -26 8 -26 -9 0 -10 8 -20 18 -22 23 -6 -46 -25 -212 -59 -51 -11
-55 -14 -35 -22 13 -5 34 -11 47 -13 54 -10 117 -41 120 -57 2 -10 -7 -27 -20
-38 -12 -10 -36 -31 -52 -45 -17 -15 -36 -24 -47 -21 -10 3 -17 0 -16 -5 2
-13 -59 -36 -93 -36 -15 0 -19 2 -10 5 8 3 22 12 32 20 9 8 22 15 30 16 13 2
18 9 18 27 0 17 -14 11 -48 -20 -18 -16 -41 -30 -50 -30 -9 0 -24 -5 -32 -10
-13 -9 -13 -10 0 -10 11 0 9 -4 -5 -12 -12 -7 -76 -12 -167 -12 l-147 -1 38
-20 c72 -38 161 -115 161 -139 0 -19 -78 -66 -110 -66 -29 0 -85 -17 -125 -38
-21 -12 -58 -16 -127 -17 -54 0 -98 -2 -98 -5 0 -3 13 -21 29 -40 38 -47 63
-98 55 -111 -4 -7 -24 -9 -53 -6 -37 5 -41 4 -21 -4 34 -14 13 -26 -64 -34
-33 -4 -68 -12 -77 -18 -13 -8 -28 -8 -53 0 -41 13 -44 6 -15 -31 21 -27 59
-123 59 -151 0 -8 -9 -24 -19 -34 -25 -25 -127 -54 -164 -47 -25 5 -28 3 -22
-12 5 -9 9 -26 10 -38 1 -11 5 -26 10 -34 5 -9 4 -15 -3 -18 -7 -2 -9 -15 -5
-33 5 -25 2 -31 -15 -36 -11 -3 -19 -10 -16 -16 5 -13 -53 -43 -75 -38 -8 1
-17 -3 -22 -10 -6 -10 -21 -11 -71 -2 -35 6 -64 9 -65 8 -2 -1 4 -23 13 -49
24 -71 9 -115 -48 -139 -30 -13 -56 -17 -88 -13 -47 6 -143 28 -172 41 -22 9
-22 14 2 -65 17 -57 18 -73 8 -130 -16 -90 -27 -101 -102 -99 -43 1 -80 10
-125 30 -35 16 -65 28 -66 27 -2 -2 2 -34 7 -71 8 -49 7 -76 -1 -93 -6 -14
-11 -34 -11 -44 0 -58 -113 -56 -225 3 -43 23 -68 31 -70 24 -2 -7 -6 -23 -9
-37 -20 -92 -107 -88 -218 9 -25 23 -48 41 -51 41 -3 0 -1 -15 3 -32 21 -79
49 -196 55 -233 4 -22 36 -115 72 -207 64 -163 68 -169 165 -290 55 -67 126
-152 157 -188 32 -36 95 -112 141 -170 46 -58 100 -125 120 -150 123 -152 212
-318 228 -422 14 -90 3 -113 -52 -115 -45 -2 -91 12 -120 36 -18 15 -18 15
-11 -9 29 -91 33 -180 10 -204 -8 -8 -15 -19 -15 -25 0 -9 -38 -26 -45 -19 -1
1 -17 25 -34 52 -30 49 -43 43 -19 -9 6 -14 8 -28 5 -31 -10 -10 -68 17 -104
49 l-33 29 0 -60 c0 -33 -3 -74 -6 -91 -6 -27 -9 -30 -22 -19 -13 11 -15 10
-9 -4 4 -11 -1 -22 -12 -30 -9 -7 -20 -21 -24 -30 -10 -27 -64 -23 -106 8 -40
30 -161 154 -161 166 0 4 -4 8 -9 8 -4 0 -11 -27 -15 -60 -7 -60 -21 -85 -32
-56 -3 9 -10 16 -15 16 -13 0 -11 -34 3 -48 9 -9 6 -12 -16 -12 -23 0 -26 -3
-21 -20 11 -34 -21 -34 -90 -1 -51 25 -77 47 -123 104 -60 73 -122 165 -136
202 -7 18 -10 16 -20 -13 -6 -19 -21 -39 -31 -45 -11 -6 -24 -16 -30 -23 -5
-6 -23 -15 -38 -18 -23 -5 -30 -3 -34 12 -3 13 -11 18 -23 15 -30 -8 -87 54
-130 141 -82 167 -95 273 -86 729 l6 348 -37 -7 c-44 -7 -177 -58 -210 -80
-34 -22 -30 -70 9 -118 27 -33 32 -47 35 -105 2 -53 -1 -73 -17 -98 -21 -35
-48 -46 -35 -15 5 9 10 32 13 51 4 29 2 32 -15 27 -44 -14 -89 53 -64 93 5 8
0 27 -17 52 -27 42 -37 47 -45 25 -3 -8 -19 -17 -36 -21 -26 -5 -31 -11 -31
-35 0 -34 -24 -62 -46 -53 -24 9 -35 -17 -28 -64 7 -51 0 -55 -22 -11 -11 22
-15 48 -12 85 3 36 1 52 -6 50 -6 -2 -10 -16 -8 -31 5 -37 -22 -76 -51 -73
-20 2 -22 -3 -25 -50 -2 -29 -7 -53 -13 -53 -5 0 -9 5 -9 11 0 6 -12 -3 -26
-20 -33 -40 -66 -44 -35 -5 12 15 21 39 21 54 0 25 -3 28 -31 26 -43 -2 -78
42 -61 78 9 20 7 27 -12 45 -30 28 -60 28 -51 1 8 -27 -19 -70 -44 -70 -24 0
-31 -20 -24 -64 3 -20 3 -36 -1 -36 -13 0 -36 70 -36 111 0 28 -4 39 -12 36
-8 -2 -12 -16 -10 -36 4 -38 -12 -61 -43 -61 -26 0 -37 -28 -28 -71 7 -38 -11
-37 -27 1 -12 30 -9 110 6 159 13 43 -20 18 -37 -29 -12 -32 -17 -38 -22 -26
-13 34 -7 63 24 109 24 36 40 49 79 62 27 9 54 23 60 31 7 7 20 14 29 14 9 0
33 13 52 30 20 16 58 34 85 40 84 18 266 83 271 97 7 18 -32 143 -68 219 -16
33 -29 65 -29 71 0 6 -5 13 -10 15 -6 2 -23 46 -39 98 -28 92 -165 357 -281
545 -24 39 -61 108 -82 155 -22 47 -44 94 -50 105 -6 11 -19 45 -28 75 l-16
55 -45 -3 c-24 -2 -52 -5 -61 -8 -33 -10 -54 28 -68 124 -13 86 -27 111 -45
83 -7 -13 -100 -12 -147 0 -21 5 -50 20 -64 33 -25 21 -26 25 -15 57 6 19 29
65 50 102 42 71 39 81 -12 45 -27 -19 -45 -23 -107 -23 -93 1 -128 10 -161 41
-14 13 -30 24 -36 24 -5 0 -24 14 -42 31 l-32 30 41 48 c48 58 50 67 10 46
-40 -21 -43 -20 -35 18 6 26 5 30 -6 20 -17 -17 -66 -16 -72 0 -3 8 -30 31
-61 51 -31 20 -56 42 -56 47 0 6 -5 7 -10 4 -12 -7 -70 51 -70 70 0 14 22 25
51 25 10 0 65 19 121 41 176 71 194 85 106 84 -41 0 -52 3 -50 14 2 11 0 12
-11 3 -10 -8 -27 -10 -53 -4 -33 7 -40 12 -42 36 -3 25 -5 26 -21 12 -16 -15
-61 -12 -61 4 0 4 -13 13 -29 20 -34 13 -153 138 -145 151 2 4 -5 13 -16 19
-34 18 -22 30 30 30 28 0 92 7 143 15 50 8 109 15 130 17 34 2 36 4 21 15 -10
7 -25 13 -34 13 -9 0 -25 7 -36 15 -10 8 -26 15 -35 15 -9 0 -36 18 -60 40
-144 129 -144 129 -131 142 16 16 15 33 -1 19 -18 -14 -46 16 -82 87 -30 59
-27 76 8 44 36 -33 115 -62 201 -73 45 -6 94 -15 109 -21 40 -16 45 -2 5 18
-75 38 -222 226 -289 367 -36 78 -34 99 4 34 33 -56 169 -180 255 -233 37 -22
126 -62 197 -88 72 -26 158 -63 193 -82 34 -18 62 -30 62 -27 0 4 -23 31 -52
60 -41 42 -48 53 -33 53 29 0 118 -44 195 -95 37 -25 71 -45 76 -45 16 0 -52
62 -81 74 l-30 13 35 22 c86 53 221 54 385 2 65 -21 110 -30 130 -26 35 6 20
6 175 3 122 -3 127 -4 204 -42 94 -45 182 -131 249 -241 23 -38 61 -96 85
-127 46 -63 50 -73 26 -64 -20 8 -21 10 63 -119 39 -60 91 -126 115 -146 42
-35 44 -36 108 -29 121 13 265 105 437 281 99 102 176 194 227 274 52 80 195
265 205 265 5 0 28 20 52 45 24 25 51 45 61 45 9 0 32 19 50 42 82 104 260
265 318 288 19 7 42 19 50 26 21 18 70 35 70 25 0 -5 -12 -27 -26 -49 -15 -22
-26 -43 -25 -46 1 -4 -10 -27 -25 -51 -14 -25 -22 -45 -17 -45 16 0 90 53 161
116 26 22 74 62 107 89 33 26 62 51 65 54 11 14 60 41 75 41 19 0 19 -4 0 -41
l-16 -30 58 39 c32 21 72 47 89 58 17 10 73 46 123 79 51 33 132 85 180 116
48 31 128 87 179 125 102 77 281 198 343 231 22 12 46 26 53 33 8 6 20 9 27 8
7 -2 13 2 14 8 0 10 92 90 126 110 20 11 102 81 183 156 72 67 132 109 157
111 10 1 20 10 24 22 5 19 6 19 19 -4 l14 -24 6 21 c9 26 24 28 41 5 11 -15 8
-22 -19 -47 -20 -19 -27 -31 -18 -33 12 -5 56 42 58 62 0 5 5 19 9 29 15 35
17 -1 2 -45z"/>
<path d="M6284 1921 c-44 -15 -103 -38 -130 -52 -41 -20 -49 -29 -52 -55 -3
-34 35 -90 45 -66 2 7 25 36 49 65 31 35 55 54 77 59 106 21 194 79 120 78
-16 -1 -64 -13 -109 -29z"/>
</g>
</svg>
