<?xml version="1.0" standalone="no"?>
<!DOCTYPE svg PUBLIC "-//W3C//DTD SVG 20010904//EN"
 "http://www.w3.org/TR/2001/REC-SVG-20010904/DTD/svg10.dtd">
<svg version="1.0" xmlns="http://www.w3.org/2000/svg"
 width="886" height="693" viewBox="254 -7 886 693"
 preserveAspectRatio="xMidYMid meet">
<metadata>
Created by potrace 1.16, written by Peter Selinger 2001-2019
</metadata>
<g transform="translate(0.000000,720.000000) scale(0.100000,-0.100000)"
fill="#000000" stroke="none">
<path d="M8970 5465 c0 -25 5 -45 10 -45 6 0 10 -11 10 -24 0 -14 5 -28 10 -31
8 -5 8 -11 0 -20 -7 -9 -6 -20 4 -40 13 -25 13 -31 -1 -52 -9 -13 -18 -47 -20
-76 -5 -65 -57 -191 -97 -238 -17 -19 -49 -57 -71 -84 -22 -27 -60 -71 -85
-98 -25 -27 -57 -63 -73 -80 -15 -17 -44 -39 -65 -49 -20 -9 -32 -17 -26 -18
25 0 129 43 289 122 66 32 217 132 308 205 57 44 237 219 326 316 28 31 52 47
67 47 31 0 32 -30 2 -31 -21 -1 -21 -2 3 -8 24 -6 25 -7 13 -36 -8 -18 -13
-23 -14 -12 0 16 -30 25 -30 9 0 -5 -12 -14 -26 -20 -32 -15 -24 -29 22 -38
25 -5 33 -11 30 -23 -24 -92 -32 -111 -46 -111 -10 0 -11 -3 -4 -8 31 -20 -20
-120 -54 -107 -9 3 -12 0 -9 -8 3 -7 -8 -32 -24 -55 -16 -24 -29 -46 -29 -51
0 -4 -19 -28 -42 -53 -24 -25 -61 -65 -84 -89 -24 -27 -73 -61 -125 -87 -73
-37 -79 -42 -44 -36 22 3 69 21 105 39 36 18 76 36 90 40 14 4 63 25 108 46
46 22 88 39 94 39 5 0 36 23 68 51 50 43 61 49 77 39 17 -10 16 -10 -3 -5 -13
3 -27 -2 -39 -15 -19 -21 -19 -21 9 -11 37 15 56 14 56 -3 0 -8 7 -12 18 -10
9 2 45 5 79 7 52 2 60 0 52 -13 -21 -36 -39 -52 -52 -47 -11 4 -13 0 -9 -15 4
-17 2 -20 -15 -16 -12 3 -27 2 -34 -3 -11 -7 -10 -9 4 -9 9 0 17 -2 17 -5 0
-3 -29 -35 -65 -70 -36 -36 -62 -65 -58 -65 4 0 -13 -14 -38 -32 -126 -90
-150 -111 -141 -120 8 -8 374 78 431 103 44 19 115 28 128 17 9 -7 13 -7 13 1
0 7 4 10 9 6 5 -3 12 -1 16 5 11 18 26 10 23 -12 -2 -18 -13 -25 -48 -34 -41
-10 -43 -11 -17 -16 15 -3 27 -1 27 3 0 5 5 9 11 9 8 0 7 -5 -1 -15 -7 -9 -21
-13 -31 -10 -11 4 -19 0 -23 -13 -5 -14 -13 -18 -30 -15 -13 3 -27 0 -30 -6
-4 -6 -2 -11 4 -11 15 0 -8 -41 -34 -60 -12 -8 -22 -13 -24 -12 -1 1 -12 -7
-24 -18 -12 -11 -26 -20 -31 -20 -4 0 -23 -11 -40 -24 -18 -14 -60 -38 -95
-54 -57 -27 -60 -30 -35 -35 25 -5 280 11 467 29 67 7 68 7 57 -14 -6 -12 -21
-27 -33 -33 -12 -6 -30 -19 -40 -29 -10 -9 -43 -23 -74 -30 -38 -9 -53 -17
-50 -27 3 -7 -1 -13 -9 -13 -8 0 -15 -4 -15 -8 0 -4 -37 -13 -82 -20 -44 -6
-90 -18 -102 -25 -12 -8 -41 -17 -65 -20 -24 -3 -47 -9 -50 -14 -3 -5 -17 -13
-31 -19 -24 -11 -22 -12 30 -23 30 -7 119 -14 198 -16 79 -2 146 -5 148 -8 3
-2 -10 -12 -28 -20 -18 -9 -48 -30 -67 -47 -18 -16 -40 -30 -47 -30 -8 0 -14
-4 -14 -10 0 -5 -17 -12 -37 -15 -53 -9 -103 -33 -103 -50 0 -8 9 -20 20 -28
19 -13 19 -15 3 -30 -23 -20 -109 -57 -133 -57 -10 0 -22 5 -25 10 -3 6 -11
10 -16 10 -6 0 -8 -4 -5 -9 9 -15 -159 -61 -296 -82 -43 -6 -78 -15 -78 -18 0
-3 25 -16 54 -29 53 -23 77 -54 53 -69 -6 -3 -35 -12 -65 -19 -63 -15 -94 -5
-130 41 l-20 25 -6 -22 c-4 -17 4 -32 31 -60 21 -21 32 -38 25 -38 -16 0 -15
-32 1 -49 10 -11 9 -14 -1 -18 -7 -3 -18 -10 -25 -16 -34 -33 -119 -57 -201
-57 l-58 0 7 -32 c3 -18 9 -54 12 -80 4 -40 2 -47 -16 -53 -20 -6 -100 0 -133
11 -20 6 -26 -20 -8 -31 6 -4 8 -10 5 -15 -3 -5 -1 -11 5 -15 5 -3 10 -19 10
-35 0 -25 -5 -30 -36 -36 -20 -4 -59 -4 -88 -1 l-52 5 4 -29 c9 -63 -40 -73
-141 -30 -25 11 -48 17 -51 14 -3 -4 -6 -23 -6 -44 0 -65 -57 -65 -160 2 -33
21 -64 39 -67 39 -4 0 -22 15 -40 32 l-34 33 7 -52 c5 -44 3 -52 -13 -55 -41
-9 -142 49 -206 118 -16 17 -27 22 -31 15 -12 -19 -55 13 -234 173 -19 17 -25
18 -32 6 -5 -8 -7 -17 -4 -21 2 -4 4 -29 5 -55 1 -36 10 -62 32 -97 16 -26 33
-67 38 -91 13 -72 114 -263 217 -411 104 -149 134 -178 412 -387 52 -40 115
-89 140 -110 25 -20 104 -85 175 -144 225 -187 338 -320 350 -413 3 -26 1 -32
-13 -30 -9 1 -25 -1 -35 -6 -10 -4 -37 -1 -62 7 -25 9 -45 13 -45 11 0 -3 9
-18 20 -34 38 -53 60 -115 54 -149 -10 -48 -30 -48 -80 1 -24 24 -44 39 -44
33 0 -6 11 -21 25 -34 14 -13 25 -27 25 -31 0 -13 -61 1 -98 22 -18 11 -35 19
-37 19 -2 0 5 -25 16 -57 21 -61 25 -98 9 -88 -6 3 -7 -1 -4 -9 3 -9 1 -16 -4
-16 -6 0 -12 -10 -14 -22 -3 -20 -9 -23 -45 -22 -41 1 -149 57 -214 111 -29
24 -45 30 -34 12 4 -6 9 -30 12 -55 5 -46 -8 -58 -26 -27 -9 16 -10 16 -11 1
0 -9 7 -24 16 -32 14 -15 14 -16 -5 -16 -23 0 -27 -10 -9 -28 22 -22 -22 -26
-81 -7 -65 20 -173 92 -266 177 -60 55 -65 58 -65 35 0 -14 -7 -32 -15 -41 -8
-8 -15 -19 -15 -24 0 -17 -54 -22 -66 -6 -7 8 -19 12 -28 8 -27 -10 -119 59
-186 138 -102 124 -195 333 -309 703 -17 55 -35 106 -40 114 -11 18 -31 5 -31
-20 0 -23 -18 -26 -26 -4 -10 24 -21 18 -27 -15 -9 -40 -23 -38 -31 5 -4 19
-11 35 -16 35 -6 0 -10 -4 -10 -9 0 -4 -10 -21 -22 -37 l-23 -29 -6 35 -5 35
-14 -28 c-10 -20 -16 -24 -21 -15 -6 10 -11 10 -20 1 -10 -10 -15 -9 -25 5
-12 16 -18 15 -99 -12 -47 -16 -120 -49 -162 -74 -73 -42 -75 -45 -69 -75 4
-19 23 -47 46 -69 22 -21 40 -41 40 -45 1 -4 3 -38 6 -74 5 -61 4 -68 -21 -95
l-27 -29 6 25 c4 14 8 34 11 45 3 11 1 26 -4 34 -8 12 -12 13 -26 1 -14 -11
-20 -10 -43 7 -21 16 -27 29 -26 57 1 28 -6 45 -31 72 -33 35 -33 36 -45 15
-6 -12 -24 -24 -39 -27 -23 -5 -29 -13 -37 -47 -9 -39 -18 -49 -58 -61 -16 -6
-18 -13 -13 -57 5 -44 4 -49 -8 -39 -21 18 -37 85 -29 125 4 23 2 35 -5 35 -6
0 -11 -14 -11 -32 0 -17 -4 -45 -10 -62 -5 -17 -12 -43 -15 -59 -6 -32 -41
-70 -58 -64 -7 2 -17 22 -22 44 -6 23 -23 53 -39 68 -22 21 -27 32 -23 54 5
22 0 34 -18 51 -34 32 -63 20 -63 -26 0 -40 -15 -62 -45 -66 -20 -3 -22 -9
-20 -53 l2 -50 -20 24 c-18 22 -24 55 -21 109 0 14 -4 22 -11 19 -7 -2 -11
-17 -9 -32 5 -44 -16 -75 -51 -75 l-29 0 4 -55 c5 -64 -6 -71 -29 -18 -15 36
-14 82 3 158 6 28 5 29 -11 13 -10 -9 -21 -34 -24 -55 -7 -37 -7 -38 -20 -14
-28 51 26 153 94 177 19 6 48 23 65 38 17 14 37 26 44 26 7 0 28 15 47 33 22
22 58 41 104 56 91 28 285 121 285 136 0 35 -102 290 -122 305 -3 3 -22 46
-41 96 -34 91 -44 106 -177 264 -31 36 -63 77 -73 90 -13 19 -24 24 -52 22
-22 -2 -62 9 -106 28 -92 41 -128 46 -167 26 -35 -18 -56 -12 -128 35 -28 20
-63 31 -118 38 -43 6 -79 11 -82 11 -2 0 -32 24 -66 53 -47 39 -77 56 -118 65
-122 29 -143 36 -170 64 -22 22 -30 40 -32 75 -3 44 -5 47 -33 49 -126 10
-147 15 -201 42 -47 24 -62 37 -72 65 -7 19 -11 41 -10 48 2 8 -20 16 -62 23
-68 12 -100 26 -172 75 -24 16 -61 37 -83 47 -22 11 -43 23 -47 28 -3 5 -41
15 -85 21 -293 45 -422 97 -558 226 -69 66 -154 174 -144 184 3 2 25 -21 49
-52 65 -81 132 -133 248 -191 107 -55 131 -61 60 -16 -74 47 -155 135 -187
204 -47 101 -88 282 -63 279 10 -1 155 -165 206 -234 72 -98 287 -291 335
-300 32 -6 26 11 -25 68 -28 32 -53 74 -64 107 -23 71 -31 180 -15 209 11 22
13 21 58 -41 184 -253 258 -338 292 -338 38 0 47 22 40 97 -5 59 -4 66 8 51 8
-10 17 -15 20 -11 4 3 27 -13 52 -36 53 -49 88 -53 200 -22 120 33 251 44 438
37 94 -3 193 -9 220 -12 46 -6 47 -6 47 22 0 46 -14 59 -29 28 -14 -32 -22
-25 -45 36 -41 105 -60 131 -68 93 -2 -10 -14 13 -26 50 -27 87 -103 197 -136
197 -12 0 -35 13 -50 29 -26 27 -32 29 -119 29 -55 1 -130 9 -186 22 -53 12
-107 18 -123 15 -41 -9 -35 8 23 70 72 77 179 127 339 160 169 34 210 47 221
67 5 10 18 18 29 18 10 0 31 11 45 24 39 37 160 83 245 95 138 19 278 -13 441
-98 52 -27 120 -59 152 -71 57 -22 74 -40 36 -40 -29 0 -15 -17 21 -25 29 -6
42 -25 19 -25 -7 0 9 -16 35 -36 26 -20 45 -39 41 -42 -3 -3 20 -20 51 -38 31
-18 59 -36 63 -41 12 -19 277 -169 346 -197 91 -37 189 -45 271 -21 67 19 97
47 130 120 35 80 115 142 204 156 63 10 100 1 100 -24 0 -19 1 -19 20 -2 22
20 117 45 175 45 22 0 60 -7 85 -16 43 -15 47 -15 110 9 36 14 110 43 166 64
56 21 117 50 137 63 212 149 401 328 533 506 157 213 188 256 215 298 15 25
33 41 45 41 10 0 19 7 19 15 0 15 34 57 48 59 4 1 7 -19 7 -44z"/>
<path d="M6380 1956 c-204 -86 -249 -122 -220 -175 13 -25 25 -20 45 19 9 18
28 33 52 41 65 21 135 61 170 95 19 19 40 34 48 34 7 0 17 5 20 10 12 19 -40
8 -115 -24z"/>
</g>
</svg>
