<?xml version="1.0" standalone="no"?>
<!DOCTYPE svg PUBLIC "-//W3C//DTD SVG 20010904//EN"
 "http://www.w3.org/TR/2001/REC-SVG-20010904/DTD/svg10.dtd">
<svg version="1.0" xmlns="http://www.w3.org/2000/svg"
 width="886" height="693" viewBox="254 -7 886 693"
 preserveAspectRatio="xMidYMid meet">
<metadata>
Created by potrace 1.16, written by Peter Selinger 2001-2019
</metadata>
<g transform="translate(0.000000,720.000000) scale(0.100000,-0.100000)"
fill="#000000" stroke="none">
<path d="M9860 4758 c-1 -7 -7 -24 -15 -38 -18 -32 -20 -59 -3 -42 20 20 48 15
48 -9 0 -21 -19 -87 -46 -159 -7 -19 -16 -49 -19 -66 -4 -20 -15 -35 -31 -43
-18 -8 -24 -17 -20 -28 4 -11 -5 -27 -30 -50 -20 -18 -38 -33 -41 -33 -2 0
-27 -18 -56 -39 -29 -21 -68 -46 -87 -55 -19 -10 -60 -30 -90 -46 -30 -16 -74
-32 -97 -36 -24 -3 -43 -10 -43 -15 0 -5 10 -7 23 -4 12 3 72 12 132 21 151
21 275 53 464 119 104 36 199 81 403 189 59 31 116 56 126 56 11 0 22 6 25 14
7 19 91 76 111 76 21 0 20 -12 -5 -44 -12 -15 -30 -26 -45 -26 -13 0 -24 -4
-24 -9 0 -5 11 -8 25 -5 20 3 25 0 25 -16 0 -11 -4 -20 -10 -20 -6 0 -9 -3 -8
-7 4 -17 -14 -53 -28 -53 -8 0 -14 -6 -14 -14 0 -24 -18 -28 -42 -12 -29 20
-48 20 -48 0 0 -12 6 -15 26 -10 21 6 25 4 21 -8 -3 -8 -1 -17 6 -19 20 -8
-77 -99 -106 -99 -15 0 -24 -6 -23 -15 0 -7 -12 -21 -27 -31 -28 -17 -29 -16
-48 7 -23 28 -25 45 -4 37 9 -3 15 0 15 9 0 17 -9 19 -28 6 -13 -7 -19 -26
-22 -61 0 -12 -4 -11 -15 4 -7 10 -19 15 -25 11 -15 -9 7 -35 43 -50 l29 -12
-49 -20 c-26 -11 -63 -23 -82 -27 -27 -5 -32 -3 -27 10 3 8 2 12 -4 9 -6 -3
-10 -12 -10 -19 0 -24 -98 -57 -189 -66 l-86 -7 65 -3 c36 -1 79 -4 95 -6 34
-5 300 10 579 31 105 8 192 12 195 10 2 -3 -5 -5 -17 -5 -11 0 -41 -9 -65 -19
-25 -11 -48 -16 -52 -13 -4 4 -4 -4 0 -18 7 -22 6 -23 -9 -11 -10 9 -16 10
-16 2 0 -6 -8 -11 -17 -12 -12 0 -13 -2 -5 -6 9 -3 4 -12 -14 -28 l-28 -24 30
-7 c16 -4 38 -7 49 -6 16 1 17 -1 5 -8 -8 -5 -23 -7 -33 -4 -10 3 -26 -1 -35
-9 -9 -8 -39 -18 -66 -22 -26 -3 -65 -16 -85 -27 -20 -11 -49 -22 -66 -25 -27
-4 -147 -37 -185 -51 -45 -16 383 -60 652 -66 60 -1 66 -18 10 -30 -33 -8 -41
-13 -37 -27 6 -17 -13 -28 -60 -35 -70 -10 -103 -18 -127 -30 -15 -8 -54 -14
-88 -14 -35 0 -60 -4 -60 -11 0 -5 -4 -8 -9 -5 -4 3 -44 -1 -87 -10 -44 -8
-115 -15 -158 -16 -45 0 -73 -4 -65 -8 24 -14 208 -49 314 -60 116 -13 135
-17 135 -32 0 -7 -21 -9 -62 -5 -35 3 -57 3 -50 0 20 -8 14 -26 -8 -20 -11 3
-20 1 -20 -4 0 -5 6 -9 14 -9 8 0 18 -5 22 -11 5 -8 -1 -10 -19 -5 -17 4 -39
-1 -67 -15 -22 -12 -59 -22 -82 -22 -24 -1 -46 -5 -49 -10 -3 -4 -29 -10 -57
-14 -50 -6 -65 -16 -39 -26 15 -7 -7 -24 -43 -34 -14 -3 -30 -13 -36 -21 -9
-12 -22 -13 -70 -6 -69 10 -112 8 -131 -8 -24 -20 -190 -26 -282 -11 -53 9
-87 11 -93 5 -7 -7 -3 -12 9 -16 11 -3 35 -22 53 -42 27 -27 32 -37 21 -43
-18 -12 -101 12 -101 29 0 4 -7 10 -14 13 -25 10 -7 -16 29 -43 52 -38 51 -47
-13 -66 -57 -16 -218 -23 -258 -10 -19 6 -20 2 -16 -60 3 -49 1 -69 -9 -75
-18 -12 -144 -1 -186 17 -37 15 -37 15 -22 -23 11 -30 19 -59 22 -82 2 -14
-48 -33 -85 -32 -10 0 -26 0 -35 0 -10 -1 -37 -1 -60 -1 -37 0 -43 -4 -43 -22
0 -30 -11 -43 -40 -50 -28 -7 -150 25 -186 49 l-24 15 0 -50 c0 -91 -48 -98
-205 -28 -38 18 -92 47 -118 66 -27 18 -50 32 -52 30 -2 -2 1 -23 7 -47 8 -33
8 -45 -1 -51 -7 -4 -11 -11 -9 -16 1 -5 -17 -10 -42 -12 -55 -4 -119 23 -188
78 -43 33 -52 37 -62 25 -18 -22 -31 -19 -98 25 -34 22 -62 36 -62 31 0 -4 16
-29 36 -55 20 -26 37 -58 39 -71 2 -25 77 -152 129 -220 17 -22 70 -85 118
-141 87 -100 89 -102 295 -224 326 -194 451 -270 543 -328 168 -108 280 -218
280 -276 0 -22 -5 -26 -45 -32 -43 -6 -70 -3 -112 13 -12 5 -5 -8 19 -36 40
-47 63 -97 48 -106 -5 -3 -7 -12 -4 -20 12 -30 -27 -28 -72 4 -24 18 -44 28
-44 22 0 -6 9 -15 20 -21 58 -31 -13 -35 -87 -4 -38 15 -38 16 -17 -36 18 -44
12 -90 -11 -90 -8 0 -12 -6 -9 -14 7 -19 -28 -29 -74 -21 -20 3 -81 27 -134
53 l-98 47 6 -50 6 -50 -26 25 c-24 21 -26 22 -20 5 4 -11 11 -26 17 -32 7 -9
5 -13 -6 -13 -10 0 -13 -6 -10 -20 5 -17 0 -20 -29 -20 -79 0 -230 66 -345
151 -59 44 -63 46 -56 21 8 -34 -75 -99 -93 -71 -3 5 -22 9 -42 9 -22 0 -57
12 -87 29 -124 72 -212 184 -309 396 -32 72 -67 141 -77 154 l-19 24 0 -25 c0
-13 -6 -32 -13 -42 -11 -15 -14 -13 -26 20 l-14 38 -23 -45 c-22 -44 -27 -43
-37 6 -3 16 -6 14 -19 -15 -9 -19 -17 -29 -17 -21 -1 11 -4 11 -17 0 -13 -10
-17 -10 -25 2 -22 35 -299 -155 -299 -206 0 -21 11 -34 73 -89 16 -15 27 -35
27 -50 0 -14 5 -28 10 -31 15 -9 12 -62 -5 -95 -16 -31 -42 -42 -31 -14 14 35
16 60 7 74 -8 12 -13 12 -23 2 -32 -32 -94 9 -85 57 4 20 -2 31 -24 49 l-29
24 -29 -31 c-16 -17 -34 -31 -40 -31 -6 0 -11 -19 -11 -45 0 -39 -3 -46 -30
-60 -32 -16 -37 -36 -20 -79 6 -16 6 -26 0 -26 -19 0 -41 50 -47 104 -3 31
-10 53 -15 50 -5 -3 -6 -21 -2 -40 10 -52 -2 -84 -31 -84 -29 0 -38 -24 -25
-70 5 -18 7 -36 5 -39 -9 -8 -34 33 -41 67 -5 27 -11 33 -25 29 -23 -6 -23 1
-4 27 8 11 15 29 15 40 0 17 -2 18 -10 6 -8 -13 -10 -13 -10 2 0 9 6 18 13 21
6 3 -6 3 -29 0 -48 -6 -74 14 -74 57 0 35 -37 63 -64 48 -12 -7 -16 -17 -12
-34 10 -37 -3 -70 -31 -83 -21 -10 -24 -17 -21 -44 3 -17 9 -40 13 -51 6 -14
5 -18 -6 -14 -22 7 -49 69 -49 111 0 27 -4 37 -12 34 -9 -2 -12 -19 -10 -46 4
-46 -10 -71 -39 -71 -15 0 -19 -7 -19 -36 0 -19 5 -44 10 -55 8 -15 7 -19 -4
-19 -30 0 -49 58 -44 137 4 54 2 73 -7 73 -17 0 -25 -23 -25 -68 -1 -35 -2
-36 -15 -18 -39 52 3 156 80 202 25 14 45 32 45 40 0 8 11 19 24 23 13 5 37
26 53 46 16 20 64 55 107 80 88 50 237 155 243 171 7 18 -133 314 -148 314 -4
0 -22 37 -40 83 -29 74 -42 92 -134 185 l-101 103 -37 -16 c-51 -21 -160 -18
-215 6 l-43 18 -37 -24 c-80 -52 -202 -47 -248 11 -14 17 -24 22 -28 15 -13
-20 -120 -69 -168 -76 -44 -7 -48 -5 -92 35 -28 26 -50 57 -58 81 -6 22 -12
39 -13 39 -2 0 -20 -16 -41 -35 -47 -43 -145 -75 -233 -75 -83 0 -103 19 -101
98 2 89 3 88 -22 65 -73 -66 -259 -92 -380 -51 -46 15 -49 19 -33 53 22 48 45
107 45 116 0 17 -19 9 -54 -22 l-35 -30 -128 4 c-70 3 -141 10 -158 16 -16 6
-49 16 -72 21 -24 6 -43 15 -43 20 0 5 33 25 72 45 72 36 114 66 73 51 -135
-49 -262 -45 -454 11 l-56 16 30 13 c17 7 43 13 58 14 38 0 204 56 195 65 -2
3 -31 0 -63 -5 -93 -15 -253 3 -371 42 l-99 33 138 6 c157 7 209 26 75 27 -68
1 -101 7 -184 36 -96 34 -248 107 -259 127 -3 5 15 0 41 -12 l48 -20 -69 65
c-38 36 -66 68 -63 71 4 4 19 -5 35 -18 188 -165 209 -172 473 -171 l195 1
159 42 c87 23 191 54 230 70 39 16 104 41 145 57 77 30 83 41 12 25 -55 -12
-52 3 7 33 26 13 63 38 82 55 25 23 68 42 165 72 71 23 139 45 150 50 71 30
230 44 462 43 146 -1 161 0 154 15 -18 33 -61 64 -114 81 -55 18 -85 17 -147
-7 -14 -6 -52 -13 -85 -17 -33 -4 -81 -12 -107 -18 -26 -7 -50 -9 -53 -7 -12
12 25 112 60 163 45 65 186 180 284 230 20 11 38 31 48 54 34 82 148 187 258
237 141 65 257 71 436 26 63 -16 140 -32 172 -36 61 -8 66 -11 40 -30 -15 -11
-13 -14 19 -29 20 -10 44 -26 53 -36 16 -18 16 -18 -7 -13 -12 3 13 -18 57
-46 44 -28 80 -57 80 -63 0 -7 79 -47 175 -90 153 -68 188 -80 280 -94 124
-19 222 -15 365 16 112 25 189 60 285 130 80 58 88 62 194 101 80 29 93 31
195 27 60 -1 113 -7 117 -11 11 -10 -12 -26 -50 -34 -23 -5 -25 -7 -12 -15 12
-7 27 -3 52 11 33 20 48 21 183 18 112 -3 154 -8 179 -21 27 -14 63 -16 229
-16 313 2 431 23 603 110 117 58 198 118 277 202 43 45 113 116 156 158 42 41
77 82 77 91 0 8 11 25 25 37 14 12 25 28 25 36 0 13 36 44 53 45 4 1 7 -5 7
-11z"/>
<path d="M7060 1859 c0 -21 -1 -22 -20 -4 -23 21 -23 21 -11 -23 11 -35 7 -39
-15 -17 -23 22 -44 18 -44 -7 0 -26 -41 -117 -52 -118 -5 0 -8 11 -8 25 0 29
-15 33 -24 8 -6 -14 -9 -15 -15 -4 -7 10 -12 8 -24 -10 -13 -18 -19 -20 -31
-10 -18 15 -47 1 -166 -80 -106 -72 -150 -113 -150 -136 0 -28 25 -59 60 -73
16 -7 30 -16 30 -21 0 -17 19 -9 25 10 3 11 16 23 28 27 38 12 129 82 154 119
14 21 47 47 81 64 72 36 216 142 237 174 12 19 13 31 6 51 -6 14 -15 26 -20
26 -6 0 -7 -8 -4 -17 6 -16 5 -16 -10 -4 -9 7 -15 17 -12 21 3 5 1 11 -5 15
-6 3 -10 -4 -10 -16z"/>
</g>
</svg>
