<?xml version="1.0" standalone="no"?>
<!DOCTYPE svg PUBLIC "-//W3C//DTD SVG 20010904//EN"
 "http://www.w3.org/TR/2001/REC-SVG-20010904/DTD/svg10.dtd">
<svg version="1.0" xmlns="http://www.w3.org/2000/svg"
 width="886" height="693" viewBox="254 -7 886 693"
 preserveAspectRatio="xMidYMid meet">
<metadata>
Created by potrace 1.16, written by Peter Selinger 2001-2019
</metadata>
<g transform="translate(0.000000,720.000000) scale(0.100000,-0.100000)"
fill="#000000" stroke="none">
<path d="M10710 6226 c0 -8 -7 -22 -17 -31 -12 -13 -13 -19 -4 -25 10 -5 9 -9
-2 -13 -10 -4 -14 -14 -11 -29 4 -20 3 -20 -4 -4 -6 15 -11 16 -16 7 -5 -7 -4
-17 2 -23 7 -7 2 -22 -14 -46 -17 -25 -21 -38 -13 -43 22 -13 -49 -155 -91
-181 -11 -7 -20 -21 -20 -30 0 -10 -7 -18 -15 -18 -18 0 -41 -51 -44 -96 -1
-5 -65 -76 -144 -157 -78 -81 -141 -147 -139 -147 4 0 34 20 122 81 48 33 225
178 282 231 77 71 275 294 283 317 6 19 25 30 25 15 0 -9 -33 -78 -40 -84 -3
-3 -14 -27 -24 -55 -11 -27 -27 -58 -37 -68 -10 -10 -26 -32 -35 -49 -9 -17
-30 -52 -48 -77 -17 -26 -40 -63 -50 -84 -22 -43 -152 -197 -266 -313 -2 -3 4
-2 15 2 11 4 22 10 25 14 3 3 57 39 120 79 257 163 304 195 349 243 48 51 56
35 8 -19 -49 -57 -93 -116 -99 -134 -4 -9 -28 -27 -54 -39 -25 -13 -49 -32
-52 -42 -3 -11 -10 -17 -18 -14 -8 3 -14 -1 -14 -9 0 -8 -9 -19 -20 -25 -11
-6 -18 -16 -14 -21 3 -6 -47 -62 -113 -126 -130 -127 -126 -128 57 -19 50 30
100 58 112 62 20 6 20 6 2 -20 -11 -14 -22 -26 -26 -26 -5 0 -8 -6 -8 -14 0
-7 -14 -25 -32 -40 -17 -14 -28 -26 -23 -26 14 0 -55 -62 -111 -100 -27 -19
-54 -39 -61 -46 -17 -16 -170 -117 -225 -148 -27 -15 -48 -31 -48 -37 0 -15
84 -1 159 27 35 13 74 24 88 24 21 0 23 -2 12 -22 -15 -30 -99 -108 -116 -108
-7 0 -13 -6 -13 -13 0 -15 -53 -57 -72 -57 -7 0 -32 -19 -55 -43 -54 -54 -84
-75 -158 -110 -51 -25 -57 -30 -40 -37 12 -4 26 -15 33 -23 10 -12 7 -19 -20
-42 -18 -15 -52 -37 -75 -48 -24 -12 -43 -25 -43 -29 0 -4 -7 -8 -16 -8 -9 0
-48 -21 -87 -47 -79 -52 -148 -83 -255 -111 -40 -11 -76 -23 -79 -26 -7 -7
105 -116 118 -116 5 0 13 -10 20 -21 9 -18 8 -24 -7 -33 -33 -19 -107 -42
-204 -65 -158 -38 -180 -43 -180 -49 0 -3 9 -16 21 -28 25 -27 18 -64 -12 -64
-10 0 -19 -4 -19 -10 0 -13 -88 -50 -121 -50 -15 0 -39 -5 -53 -11 -17 -8 -33
-8 -53 -1 l-29 10 12 -66 c9 -50 10 -74 1 -101 -11 -33 -16 -36 -97 -58 -47
-13 -95 -21 -107 -18 -28 7 -40 -13 -17 -29 12 -9 14 -15 6 -20 -7 -4 -12 -20
-12 -35 0 -28 -28 -56 -62 -63 -7 -2 -18 -9 -24 -17 -12 -15 -122 -21 -168 -8
-27 7 -28 6 -22 -15 20 -66 18 -94 -5 -122 -34 -39 -88 -48 -168 -30 -37 9
-83 25 -103 37 -21 11 -41 18 -44 14 -4 -3 -1 -26 6 -49 18 -58 18 -147 0
-183 -15 -29 -17 -30 -91 -30 -54 1 -84 6 -102 18 -15 9 -34 17 -43 17 -9 0
-35 15 -58 33 -65 53 -64 53 -54 -6 6 -29 8 -84 6 -124 -4 -59 -10 -79 -32
-108 -24 -31 -32 -35 -72 -35 -45 0 -93 18 -126 48 -17 14 -18 13 -18 -12 0
-18 -4 -25 -12 -20 -8 5 -9 0 -5 -17 4 -13 19 -80 33 -149 30 -142 89 -331
137 -437 22 -51 74 -125 172 -249 404 -507 534 -708 558 -864 10 -66 7 -89
-20 -129 -1 -2 -9 2 -17 8 -10 8 -16 9 -21 1 -10 -16 -38 -12 -89 14 -38 19
-46 21 -42 7 30 -107 30 -196 1 -208 -8 -3 -12 -10 -9 -15 7 -11 -13 -28 -33
-28 -7 0 -24 21 -39 48 -34 58 -33 57 -40 49 -3 -3 2 -22 11 -42 10 -19 15
-38 12 -41 -8 -8 -69 21 -103 49 l-31 26 -6 -75 c-6 -77 -25 -124 -52 -124 -8
0 -15 -7 -15 -15 0 -20 -37 -38 -66 -31 -27 7 -145 114 -184 168 l-27 37 -13
-57 c-18 -76 -20 -79 -41 -51 l-19 24 0 -25 c0 -15 5 -31 12 -38 9 -9 6 -12
-16 -12 -23 0 -27 -3 -23 -20 3 -11 1 -22 -4 -25 -18 -12 -86 16 -126 50 -53
45 -141 162 -184 244 l-33 65 -8 -31 c-9 -34 -58 -76 -101 -87 -23 -5 -30 -3
-34 12 -3 13 -11 18 -22 15 -21 -5 -72 44 -107 105 -99 168 -118 426 -78 1030
l6 92 -26 0 c-30 0 -99 -22 -179 -57 -79 -35 -86 -73 -24 -141 30 -32 42 -143
20 -186 -15 -30 -30 -46 -45 -46 -4 0 0 12 8 28 7 15 14 38 14 51 0 19 -4 22
-22 18 -47 -13 -88 41 -67 87 9 20 7 30 -12 57 -13 19 -25 36 -26 38 -2 2 -11
-3 -20 -11 -10 -9 -27 -18 -39 -22 -13 -4 -24 -19 -30 -44 -7 -30 -14 -38 -39
-42 -28 -5 -30 -8 -30 -53 0 -26 -3 -47 -7 -47 -17 0 -29 45 -27 98 1 31 -2
58 -7 60 -5 1 -10 -14 -11 -34 -1 -40 -28 -75 -50 -67 -20 8 -33 -14 -33 -59
0 -21 -5 -38 -11 -38 -6 0 -20 -11 -31 -25 -19 -25 -48 -34 -48 -15 0 6 4 10
9 10 12 0 34 57 28 74 -3 8 -15 12 -30 9 -37 -7 -70 30 -64 70 5 38 -17 77
-44 77 -14 0 -19 -7 -19 -28 0 -34 -18 -59 -45 -64 -17 -3 -20 -11 -18 -53 l2
-50 -20 24 c-13 16 -19 39 -19 77 0 41 -4 54 -15 54 -11 0 -13 -7 -9 -29 8
-39 -10 -69 -43 -73 -26 -3 -28 -6 -26 -50 1 -27 -2 -48 -6 -48 -28 0 -43 142
-19 180 7 10 9 23 4 27 -12 12 -46 -35 -46 -64 0 -13 -4 -21 -10 -18 -20 12
-10 80 17 123 22 33 37 45 79 58 29 9 55 23 58 30 3 8 15 14 27 14 12 0 38 13
58 28 22 18 64 35 111 47 81 19 230 71 244 85 9 9 -55 208 -80 247 -8 12 -14
31 -14 43 0 11 -6 20 -13 20 -7 0 -22 35 -36 88 -13 48 -40 116 -59 152 -19
36 -62 117 -95 180 -33 63 -72 133 -87 155 -94 136 -209 412 -235 558 -8 51
-94 141 -154 162 -24 8 -61 31 -82 49 -21 19 -53 42 -71 52 -50 25 -106 72
-113 94 -9 28 -146 130 -228 170 -37 18 -85 50 -105 71 -20 21 -59 61 -87 89
-63 64 -165 122 -275 156 -128 39 -180 64 -180 84 0 21 -40 54 -160 132 -127
83 -217 181 -273 299 -59 124 -77 196 -77 307 0 87 14 189 29 204 4 4 23 -38
43 -95 100 -280 170 -422 269 -548 34 -42 45 -33 24 17 -46 111 -66 265 -44
348 27 104 41 146 49 146 8 0 80 -192 80 -215 0 -65 233 -518 254 -494 2 2 -8
40 -21 84 -19 58 -26 105 -27 172 -1 125 11 134 59 46 39 -70 110 -191 174
-297 66 -109 119 -149 107 -81 -9 46 10 46 47 0 36 -46 66 -60 157 -75 107
-18 227 -59 405 -140 85 -38 160 -70 165 -70 6 0 10 8 10 19 0 10 3 46 7 81 4
47 3 61 -5 56 -9 -5 -12 16 -12 79 0 77 -2 86 -16 81 -14 -6 -16 0 -11 41 8
68 -12 203 -35 232 -10 13 -18 34 -18 47 0 17 -19 37 -72 78 -40 30 -93 76
-118 101 -25 26 -55 51 -67 56 -34 13 -28 25 25 51 35 17 68 24 134 26 76 4
102 0 195 -28 143 -43 172 -49 178 -40 3 4 67 7 143 6 l139 -1 86 -43 c101
-50 174 -124 260 -263 28 -47 64 -101 80 -120 31 -41 34 -51 12 -43 -16 7 -21
-11 -5 -21 5 -3 41 -55 80 -114 39 -60 95 -132 125 -160 53 -50 55 -51 122
-53 219 -7 300 6 530 86 171 60 412 173 558 260 85 52 235 136 292 165 24 12
76 28 117 36 41 7 88 21 104 29 17 9 74 33 129 55 54 21 140 57 191 80 139 62
187 50 84 -21 -25 -18 -41 -33 -35 -35 16 -6 462 194 556 249 26 15 50 28 53
28 2 0 45 25 96 57 127 78 273 206 367 322 67 82 180 251 216 321 57 114 94
168 120 172 14 3 25 1 25 -5 0 -21 -25 -93 -43 -127 -11 -19 -42 -78 -70 -130
-27 -52 -74 -128 -104 -167 -54 -74 -221 -247 -303 -316 -58 -49 -41 -40 100
51 142 92 338 256 443 371 79 85 232 283 257 331 7 14 28 42 46 63 19 20 34
41 34 46 0 5 9 12 19 16 12 3 18 12 15 20 -3 7 2 25 11 39 20 30 25 32 25 12z"/>
<path d="M6252 1921 c-143 -49 -162 -62 -162 -105 0 -19 8 -40 18 -49 22 -21
32 -21 32 -3 0 7 11 25 24 39 13 14 31 36 40 49 9 13 36 27 67 35 73 19 142
51 134 63 -10 16 -33 12 -153 -29z"/>
</g>
</svg>
