<?xml version="1.0" standalone="no"?>
<!DOCTYPE svg PUBLIC "-//W3C//DTD SVG 20010904//EN"
 "http://www.w3.org/TR/2001/REC-SVG-20010904/DTD/svg10.dtd">
<svg version="1.0" xmlns="http://www.w3.org/2000/svg"
 width="1280.000000pt" height="720.000000pt" viewBox="0 0 1280.000000 720.000000"
 preserveAspectRatio="xMidYMid meet">
<metadata>
Created by potrace 1.16, written by Peter Selinger 2001-2019
</metadata>
<g transform="translate(0.000000,720.000000) scale(0.100000,-0.100000)"
fill="#000000" stroke="none">
<path d="M0 3600 l0 -3600 6400 0 6400 0 0 3600 0 3600 -6400 0 -6400 0 0
-3600z m5698 1360 c61 -19 109 -29 120 -25 28 12 202 14 267 3 131 -22 255
-116 353 -268 30 -47 72 -108 93 -136 41 -54 50 -76 22 -53 -29 24 -11 -8 58
-107 86 -121 96 -133 154 -180 64 -53 69 -55 211 -103 139 -47 265 -65 358
-50 63 11 124 37 147 65 41 50 168 69 274 40 102 -27 261 -120 286 -168 11
-20 9 -21 -22 -15 l-34 7 30 -25 c17 -14 37 -25 46 -25 17 0 95 -47 119 -72
22 -22 152 -167 187 -208 16 -19 40 -53 53 -75 13 -22 67 -89 120 -150 53 -60
123 -146 155 -190 107 -146 317 -331 450 -395 90 -44 216 -80 280 -80 31 0 47
-6 64 -24 37 -39 20 -48 -85 -44 -52 2 -94 0 -94 -4 0 -23 -227 86 -290 138
-17 15 -33 24 -36 22 -2 -3 31 -37 73 -76 43 -39 98 -89 123 -112 126 -115
446 -319 504 -320 6 0 20 -13 30 -27 17 -22 17 -26 3 -20 -9 3 -19 2 -22 -3
-3 -5 -30 -8 -60 -7 -33 2 -55 -1 -55 -8 0 -6 -3 -6 -8 1 -4 6 -19 14 -34 18
-16 3 -28 11 -28 17 0 6 -5 7 -10 4 -9 -6 -147 77 -160 96 -3 4 -40 31 -83 59
l-78 51 68 -83 c38 -46 94 -115 125 -153 82 -104 354 -375 388 -387 17 -5 30
-14 30 -18 0 -13 -61 10 -97 36 -17 13 -36 24 -42 24 -34 0 -183 107 -311 224
-94 86 -96 87 -65 36 52 -82 137 -184 271 -320 73 -74 131 -136 129 -138 -2
-2 -21 8 -42 21 -21 14 -61 35 -88 47 -91 41 -232 143 -347 250 l-71 65 48
-75 c55 -86 94 -139 144 -195 33 -36 26 -34 -24 7 -11 9 -40 32 -63 52 -49 41
-68 46 -52 15 11 -19 10 -20 -12 -8 -57 30 -120 80 -212 169 -54 52 -97 91
-94 85 2 -5 12 -27 22 -49 9 -21 16 -40 14 -42 -2 -1 -15 3 -28 11 -52 30 -85
43 -88 35 -5 -13 -34 0 -62 29 -14 15 -33 25 -41 23 -9 -2 -30 13 -47 33 -35
39 -42 42 -42 20 0 -11 -8 -13 -30 -8 -21 4 -30 2 -30 -7 0 -9 -7 -7 -20 5
-21 19 -28 7 -8 -13 17 -17 -4 -15 -30 4 -12 8 -22 24 -22 34 0 10 -4 22 -10
25 -5 3 -10 -3 -10 -14 0 -12 -4 -21 -10 -21 -5 0 -6 -7 -3 -17 5 -11 3 -14
-6 -8 -10 5 -12 1 -7 -16 3 -13 3 -18 0 -12 -4 9 -11 10 -24 3 -14 -7 -23 -6
-34 5 -8 8 -19 15 -24 15 -5 0 -17 9 -26 19 -17 19 -18 19 -51 0 -47 -28 -77
-17 -132 47 -48 56 -63 65 -63 39 0 -9 -11 -21 -25 -27 -23 -10 -29 -8 -66 28
-23 21 -59 65 -80 97 -22 31 -42 57 -45 57 -3 0 -14 -10 -23 -22 -13 -15 -24
-19 -42 -15 -33 8 -105 81 -141 142 -16 28 -27 41 -24 30 26 -106 59 -190 122
-319 l75 -152 296 -299 c309 -314 402 -417 470 -525 47 -73 77 -165 67 -204
-6 -24 -9 -25 -68 -22 -38 2 -73 10 -89 21 -26 16 -37 10 -19 -10 13 -15 32
-88 32 -122 0 -36 -27 -93 -44 -93 -7 0 -28 21 -46 46 -19 25 -36 40 -38 34
-2 -6 3 -19 12 -29 24 -26 20 -44 -6 -35 -34 10 -81 34 -102 53 -18 15 -19 14
-13 -39 7 -75 -1 -109 -28 -122 -13 -6 -26 -19 -28 -29 -13 -48 -117 0 -231
105 -27 25 -50 46 -52 46 -1 0 -5 -25 -9 -55 -6 -55 -17 -69 -29 -39 -3 8 -10
12 -16 9 -14 -9 -12 -21 7 -40 15 -16 15 -17 -8 -13 -20 2 -23 -1 -21 -21 4
-23 2 -24 -40 -17 -23 4 -61 18 -83 31 -42 24 -199 180 -230 227 -22 36 -31
35 -38 -2 -4 -16 -13 -30 -21 -30 -7 0 -16 -6 -19 -14 -8 -21 -60 -28 -74 -9
-7 9 -16 14 -19 10 -12 -11 -61 22 -105 71 -47 52 -107 164 -133 247 -24 77
-54 268 -66 422 -15 192 -20 224 -31 218 -5 -4 -9 1 -9 9 0 9 -7 16 -15 16
-50 0 -265 -99 -295 -135 -18 -21 -4 -60 36 -105 33 -37 36 -43 37 -113 2 -61
-1 -79 -17 -96 -24 -26 -40 -27 -26 -2 5 11 10 33 10 49 0 27 -3 30 -31 28
-42 -2 -74 38 -61 75 8 21 5 31 -18 59 -26 32 -30 34 -42 18 -7 -9 -25 -22
-40 -27 -22 -8 -27 -17 -30 -48 -3 -33 -7 -39 -37 -48 -33 -10 -33 -11 -29
-57 3 -27 2 -48 -2 -48 -15 0 -30 54 -30 111 0 35 -4 58 -9 54 -6 -3 -9 -23
-9 -46 0 -45 -23 -79 -51 -72 -22 6 -35 -33 -25 -72 7 -30 -12 -34 -21 -5 -8
24 -18 25 -35 5 -7 -8 -19 -15 -27 -15 -11 0 -10 7 6 29 12 16 21 40 21 54 0
24 -3 25 -33 20 -45 -7 -70 18 -65 64 3 25 -2 39 -18 54 -28 26 -59 19 -51
-12 9 -32 -9 -68 -39 -79 -24 -10 -26 -14 -22 -55 3 -25 2 -45 -1 -45 -14 0
-41 72 -41 110 0 22 -4 40 -10 40 -5 0 -9 -18 -8 -40 1 -44 -13 -67 -45 -72
-20 -3 -22 -9 -21 -57 2 -47 0 -51 -13 -39 -23 24 -33 86 -22 146 6 30 8 57 5
60 -10 9 -35 -31 -36 -55 0 -35 -18 -36 -25 -3 -5 23 0 45 19 84 21 43 34 57
68 72 24 10 56 28 71 41 16 13 34 23 41 23 7 0 27 16 46 35 18 19 47 37 63 41
40 8 204 77 250 104 39 23 45 42 26 82 l-10 24 -41 -38 c-58 -54 -97 -49 -200
23 -32 23 -35 23 -40 1 -6 -23 -91 -72 -124 -72 -27 0 -89 36 -118 69 -11 11
-22 21 -25 21 -4 0 -17 -19 -30 -43 -24 -44 -87 -97 -116 -97 -28 0 -70 27
-106 69 l-35 41 -29 -38 c-49 -61 -140 -142 -162 -142 -11 0 -29 10 -40 23
-24 26 -67 110 -77 149 -3 16 -10 28 -14 28 -4 0 -20 -26 -37 -57 -19 -37 -46
-69 -75 -90 -25 -18 -65 -48 -90 -66 -50 -38 -132 -77 -162 -77 -29 0 -39 43
-33 141 4 58 2 89 -4 89 -6 0 -33 -28 -60 -63 -27 -34 -68 -73 -91 -87 -23
-14 -49 -32 -58 -41 -10 -9 -32 -24 -50 -33 -32 -16 -33 -16 -42 6 l-9 23 0
-24 c-1 -31 -27 -50 -68 -51 -17 0 -34 -4 -37 -9 -3 -5 -20 -11 -38 -14 -18
-3 -42 -8 -53 -12 -16 -5 -24 0 -33 17 -11 19 -9 32 7 78 19 57 73 181 91 212
17 30 11 33 -15 8 -14 -13 -25 -29 -25 -36 0 -15 -122 -124 -139 -124 -11 0
-15 12 -12 42 3 27 -7 22 -24 -12 -9 -16 -20 -30 -25 -30 -6 0 -29 -14 -52
-30 -22 -17 -47 -30 -55 -30 -7 0 -16 -7 -20 -16 -3 -8 -11 -13 -19 -10 -7 3
-24 -4 -38 -15 -14 -11 -48 -22 -75 -26 -45 -5 -50 -4 -53 16 l-3 22 -21 -20
c-30 -27 -94 -39 -94 -17 0 14 162 195 182 204 4 2 38 40 75 85 37 45 71 84
75 85 4 2 8 8 8 14 0 10 -47 -21 -93 -62 -16 -14 -61 -41 -100 -61 -40 -20
-103 -52 -142 -72 -70 -35 -146 -61 -217 -71 -21 -3 -57 -10 -80 -15 -25 -6
-47 -6 -52 -1 -5 5 -16 4 -26 -2 -12 -8 -34 -8 -71 -1 -43 7 -50 11 -34 18 32
13 160 96 225 145 78 60 166 136 275 236 50 46 99 90 110 98 35 27 10 17 -65
-24 -40 -22 -81 -40 -92 -40 -10 0 -33 -13 -51 -30 -33 -31 -47 -37 -47 -20 0
6 -12 3 -27 -7 -19 -13 -28 -14 -31 -5 -2 8 -10 5 -21 -10 -13 -15 -35 -24
-72 -29 -30 -4 -79 -14 -109 -22 -120 -32 -310 -69 -310 -60 0 2 11 8 25 13
44 17 29 31 -27 25 -44 -4 -49 -3 -28 5 187 82 458 243 631 375 66 52 177 156
139 131 -134 -86 -328 -157 -485 -175 -153 -19 -248 -22 -237 -8 9 10 -2 12
-55 9 -47 -3 -64 -1 -59 7 4 6 12 11 18 11 21 0 258 105 408 181 289 145 567
323 790 505 121 99 144 115 201 146 69 36 148 102 136 114 -4 4 -13 2 -19 -4
-7 -7 -22 -12 -34 -12 -13 0 -26 -4 -29 -10 -8 -12 -45 -13 -45 -1 0 16 120
121 172 151 50 28 50 28 22 32 l-29 3 36 35 c46 46 202 126 369 188 208 79
243 86 362 73 55 -6 104 -14 109 -16 15 -10 229 -25 254 -19 19 5 26 15 31 43
3 20 12 58 21 84 17 56 12 68 -19 41 -21 -19 -21 -19 -14 1 13 33 19 225 6
225 -6 0 -10 31 -10 81 0 68 -2 80 -15 75 -13 -4 -15 8 -16 77 0 106 -11 171
-32 192 -9 9 -17 27 -17 39 0 24 -25 51 -80 84 -19 11 -62 49 -95 82 -33 34
-71 66 -84 71 -24 10 -24 10 -5 29 60 60 229 65 402 10z"/>
<path d="M6576 1915 c-3 -10 -12 -15 -20 -12 -8 3 -20 0 -26 -8 -9 -11 -16
-12 -30 -3 -22 14 -105 -16 -235 -85 -68 -36 -80 -46 -83 -70 -4 -31 18 -71
46 -86 16 -8 25 -2 56 40 21 27 43 49 50 49 27 0 143 64 164 90 13 17 40 34
63 40 39 11 46 23 30 48 -6 11 -10 10 -15 -3z"/>
</g>
</svg>
